<?xml version="1.0" standalone="no"?>
<!DOCTYPE svg PUBLIC "-//W3C//DTD SVG 1.0//EN" "http://www.w3.org/TR/2001/REC-SVG-20010904/DTD/svg10.dtd">
<svg xmlns="http://www.w3.org/2000/svg" xmlns:xlink="http://www.w3.org/1999/xlink" id="body_1" width="61" height="46">

<g transform="matrix(1.9166667 0 0 1.9166667 7.499999 -0)">
	<g>
        <path d="M0 0L24 0L24 24L0 24L0 0z" stroke="none" fill="none" />
        <path d="M7.764 19.225C 8.354 18.965 9.014 18.916 9.632 19.086C 10.402 19.296 11.1970005 19.402 12 19.4C 16.585 19.4 20 16.112999 20 11.7C 20 7.2870007 16.585 4 12 4C 7.415001 4 4 7.2869997 4 11.7C 4 13.969999 4.896 15.972 6.466 17.376C 7.04252 17.886658 7.3832455 18.612238 7.408 19.382L7.408 19.382L7.764 19.225zM12 2C 17.633999 2 22 6.127 22 11.7C 22 17.272999 17.633999 21.4 12 21.4C 11.022139 21.402512 10.048392 21.27335 9.105 21.015999C 8.927804 20.96728 8.739237 20.981052 8.570999 21.054998L8.570999 21.054998L6.586999 21.930998C 6.3435836 22.038574 6.0626097 22.018064 5.8373976 21.876278C 5.612186 21.734493 5.472224 21.489998 5.463999 21.223997L5.463999 21.223997L5.408999 19.443996C 5.4017167 19.22526 5.304805 19.019142 5.140999 18.873997C 3.195 17.135 2 14.617 2 11.7C 2 6.127 6.367 2 12 2zM5.995 14.537L8.932 9.877C 9.15541 9.522296 9.517055 9.277262 9.929308 9.20127C 10.341561 9.125278 10.766804 9.225265 11.102 9.477L11.102 9.477L13.438 11.227C 13.651941 11.388505 13.947058 11.388505 14.160999 11.227L14.160999 11.227L17.316 8.831C 17.737 8.512 18.287 9.016001 18.005 9.464001L18.005 9.464001L15.067999 14.124001C 14.844589 14.478704 14.4829445 14.723739 14.070691 14.79973C 13.658438 14.875721 13.233195 14.775736 12.897999 14.524L12.897999 14.524L10.561998 12.774C 10.348057 12.612495 10.05294 12.612495 9.838999 12.774L9.838999 12.774L6.683999 15.169001C 6.262999 15.488001 5.712999 14.984 5.994999 14.536z" stroke="none" fill="#000000" fill-rule="nonzero" />
	</g>
</g>
</svg>